<?xml version="1.0" standalone="no"?><!DOCTYPE svg PUBLIC "-//W3C//DTD SVG 1.1//EN" "http://www.w3.org/Graphics/SVG/1.1/DTD/svg11.dtd"><svg t="1584930623263" class="icon" viewBox="0 0 1024 1024" version="1.1" xmlns="http://www.w3.org/2000/svg" p-id="6608" xmlns:xlink="http://www.w3.org/1999/xlink" width="128" height="128"><defs><style type="text/css"></style></defs><path d="M512 213.333c23.564 0 42.667 19.103 42.667 42.667v213.332l213.333 0.001c23.329 0 42.284 18.723 42.661 41.961l0.006 0.706c0 23.564-19.103 42.667-42.667 42.667H554.666V768c0 23.329-18.722 42.284-41.96 42.661l-0.706 0.006c-23.564 0-42.667-19.103-42.667-42.667V554.666H256c-23.329 0-42.284-18.722-42.661-41.96l-0.006-0.706c0-23.564 19.103-42.667 42.667-42.667h213.332L469.333 256c0-23.329 18.723-42.284 41.961-42.661z" p-id="6609"></path></svg>